<svg width="53" height="59" viewBox="0 0 53 59" fill="none" xmlns="http://www.w3.org/2000/svg">
<path d="M27.7972 42.1C27.7972 42.4 27.7972 42.8 27.7972 43.4C27.8972 51.6 27.9971 58.8 27.9971 58.8C34.6971 55.1 40.3972 50.2 45.4972 44.5C46.6972 43.1 48.0971 41.4 48.9972 39.8C49.6972 38.5 50.3972 37.5 50.8972 36.1C52.4972 31.8 53.3972 27.3 52.5972 22.5C45.9972 31 37.8972 29.4 28.0972 39.8C27.9972 39.9 27.8972 40.1 27.8972 40.3C26.8972 40.7 26.6972 40.7 25.6972 40.3C25.5972 40 25.5971 39.9 25.4971 39.7C15.6971 29.3 7.59715 30.9 0.997149 22.4C0.197149 27.2 1.09716 31.7 2.69716 36C3.19716 37.4 3.89716 38.5 4.59716 39.7C5.49716 41.3 6.89716 43 8.09716 44.4C13.1972 50.1 18.8972 55 25.5972 58.7C25.6972 53.6 25.6972 48.4 25.7972 43.3C25.7972 42.9 25.7972 42.4 25.7972 42C26.5972 42.1 27.1972 42.1 27.7972 42.1Z" fill="#030303"/>
<path d="M2.09713 18.5C3.49713 19.6 5.19714 20.4 6.69714 21.2C9.79714 22.9 12.9971 24.4 16.3971 25.5C20.1971 26.7 21.8971 27.2 25.8971 27.6C26.8971 27.6 26.8971 27.6 27.7971 27.6C31.7971 27.2 33.4971 26.7 37.2971 25.5C40.6971 24.4 43.8971 22.9 46.9971 21.2C48.4971 20.4 50.1971 19.5 51.5971 18.5C52.4971 17.8 51.9971 17.5 51.3971 16.7C50.9971 16 50.4971 15.4 49.9971 14.8C46.0971 9.9 40.7971 6.1 34.8971 4.1C32.5971 3.3 28.8971 0.9 28.1971 0.1C28.1971 1.7 27.9971 17.6 27.9971 18.6C27.9971 18.7 27.5971 19.1 27.2971 19.1C26.8971 19.2 26.6971 19.2 26.2971 19.1C25.9971 19 25.6971 18.8 25.4971 18.5C25.3971 17.5 25.3971 1.6 25.2971 0C24.5971 0.8 20.8971 3.3 18.5971 4C12.6971 6 7.29713 9.8 3.49713 14.7C2.99713 15.3 2.59713 16 2.09713 16.6C1.69713 17.5 1.29713 17.8 2.09713 18.5Z" fill="#030303"/>
</svg>
