<svg width="210" height="61" viewBox="0 0 210 61" fill="none" xmlns="http://www.w3.org/2000/svg">
<path d="M14.85 1V0.75H14.6H1H0.75V1V59.8V60.05H1H14.6H14.85V59.8V1ZM13.65 1.95V58.75H2.05V1.95H13.65Z" fill="#010101" stroke="#010101" stroke-width="0.5"/>
<mask id="path-2-outside-1_501_24" maskUnits="userSpaceOnUse" x="27.6" y="0" width="55" height="61" fill="black">
<rect fill="white" x="27.6" width="55" height="61"/>
<path d="M54.1 1.7C69.4 1.7 78.9 9.6 78.9 22.3C78.9 30.6 74.8 37 67.3 40.2L66.4 40.6L66.9 41.4L79.3 59.1H66.5L55.4 43L55.1 42.7H54.7H54.1H42.2H41.4V43.5V59.1H29.3V1.7H54.1ZM41.5 33.3H42.3H53.4C61.8 33.3 66.7 29.3 66.7 22.3C66.7 15.2 62 11.3 53.4 11.3H42.2H41.4V12.1V32.6V33.3M54.1 1H28.6V59.8H42.2V43.4H54.1H54.8L66.1 59.8H80.7L67.5 40.9C75.1 37.6 79.6 31.1 79.6 22.3C79.6 9.1 69.8 1 54.1 1ZM42.2 32.6V12.1H53.3C61.6 12.1 65.8 15.9 65.8 22.4C65.8 28.8 61.6 32.7 53.3 32.7H42.2V32.6Z"/>
</mask>
<path d="M54.1 1.7C69.4 1.7 78.9 9.6 78.9 22.3C78.9 30.6 74.8 37 67.3 40.2L66.4 40.6L66.9 41.4L79.3 59.1H66.5L55.4 43L55.1 42.7H54.7H54.1H42.2H41.4V43.5V59.1H29.3V1.7H54.1ZM41.5 33.3H42.3H53.4C61.8 33.3 66.7 29.3 66.7 22.3C66.7 15.2 62 11.3 53.4 11.3H42.2H41.4V12.1V32.6V33.3M54.1 1H28.6V59.8H42.2V43.4H54.1H54.8L66.1 59.8H80.7L67.5 40.9C75.1 37.6 79.6 31.1 79.6 22.3C79.6 9.1 69.8 1 54.1 1ZM42.2 32.6V12.1H53.3C61.6 12.1 65.8 15.9 65.8 22.4C65.8 28.8 61.6 32.7 53.3 32.7H42.2V32.6Z" fill="#010101"/>
<path d="M67.3 40.2L67.1037 39.7401L67.0969 39.7431L67.3 40.2ZM66.4 40.6L66.1969 40.1431L65.6709 40.3769L65.976 40.865L66.4 40.6ZM66.9 41.4L66.476 41.665L66.4829 41.6761L66.4905 41.6869L66.9 41.4ZM79.3 59.1V59.6H80.2607L79.7095 58.8131L79.3 59.1ZM66.5 59.1L66.0883 59.3838L66.2374 59.6H66.5V59.1ZM55.4 43L55.8116 42.7162L55.7858 42.6787L55.7535 42.6464L55.4 43ZM55.1 42.7L55.4535 42.3464L55.3071 42.2H55.1V42.7ZM41.4 42.7V42.2H40.9V42.7H41.4ZM41.4 59.1V59.6H41.9V59.1H41.4ZM29.3 59.1H28.8V59.6H29.3V59.1ZM29.3 1.7V1.2H28.8V1.7H29.3ZM41.4 11.3V10.8H40.9V11.3H41.4ZM28.6 1V0.5H28.1V1H28.6ZM28.6 59.8H28.1V60.3H28.6V59.8ZM42.2 59.8V60.3H42.7V59.8H42.2ZM42.2 43.4V42.9H41.7V43.4H42.2ZM54.8 43.4L55.2117 43.1163L55.0627 42.9H54.8V43.4ZM66.1 59.8L65.6882 60.0837L65.8373 60.3H66.1V59.8ZM80.7 59.8V60.3H81.6591L81.1099 59.5137L80.7 59.8ZM67.5 40.9L67.3008 40.4414L66.7399 40.6849L67.0901 41.1863L67.5 40.9ZM79.6 22.3H79.1H79.6ZM42.2 12.1V11.6H41.7V12.1H42.2ZM42.2 32.7H41.7V33.2H42.2V32.7ZM54.1 2.2C61.6689 2.2 67.7443 4.15416 71.9179 7.62207C76.081 11.0811 78.4 16.0849 78.4 22.3H79.4C79.4 15.8151 76.969 10.5189 72.557 6.85293C68.1557 3.19584 61.831 1.2 54.1 1.2V2.2ZM78.4 22.3C78.4 30.4079 74.4121 36.6219 67.1038 39.7401L67.4962 40.6599C75.1878 37.3781 79.4 30.7921 79.4 22.3H78.4ZM67.0969 39.7431L66.1969 40.1431L66.6031 41.0569L67.503 40.6569L67.0969 39.7431ZM65.976 40.865L66.476 41.665L67.324 41.135L66.824 40.335L65.976 40.865ZM66.4905 41.6869L78.8905 59.3869L79.7095 58.8131L67.3095 41.1131L66.4905 41.6869ZM79.3 58.6H66.5V59.6H79.3V58.6ZM66.9116 58.8162L55.8116 42.7162L54.9883 43.2838L66.0883 59.3838L66.9116 58.8162ZM55.7535 42.6464L55.4535 42.3464L54.7464 43.0536L55.0464 43.3536L55.7535 42.6464ZM55.1 42.2H54.7V43.2H55.1V42.2ZM54.7 42.2H54.1V43.2H54.7V42.2ZM54.1 42.2H42.2V43.2H54.1V42.2ZM42.2 42.2H41.4V43.2H42.2V42.2ZM40.9 42.7V43.5H41.9V42.7H40.9ZM40.9 43.5V59.1H41.9V43.5H40.9ZM41.4 58.6H29.3V59.6H41.4V58.6ZM29.8 59.1V1.7H28.8V59.1H29.8ZM29.3 2.2H54.1V1.2H29.3V2.2ZM41.5 33.8H42.3V32.8H41.5V33.8ZM42.3 33.8H53.4V32.8H42.3V33.8ZM53.4 33.8C57.672 33.8 61.1245 32.7835 63.518 30.8108C65.9252 28.8269 67.2 25.9258 67.2 22.3H66.2C66.2 25.6742 65.0247 28.2731 62.882 30.0392C60.7254 31.8165 57.528 32.8 53.4 32.8V33.8ZM67.2 22.3C67.2 18.6323 65.9807 15.7281 63.5938 13.7523C61.2221 11.7891 57.7666 10.8 53.4 10.8V11.8C57.6334 11.8 60.8279 12.7609 62.9562 14.5227C65.0693 16.2719 66.2 18.8677 66.2 22.3H67.2ZM53.4 10.8H42.2V11.8H53.4V10.8ZM42.2 10.8H41.4V11.8H42.2V10.8ZM40.9 11.3V12.1H41.9V11.3H40.9ZM40.9 12.1V32.6H41.9V12.1H40.9ZM40.9 32.6V33.3H41.9V32.6H40.9ZM54.1 0.5H28.6V1.5H54.1V0.5ZM28.1 1V59.8H29.1V1H28.1ZM28.6 60.3H42.2V59.3H28.6V60.3ZM42.7 59.8V43.4H41.7V59.8H42.7ZM42.2 43.9H54.1V42.9H42.2V43.9ZM54.1 43.9H54.8V42.9H54.1V43.9ZM54.3882 43.6837L65.6882 60.0837L66.5117 59.5163L55.2117 43.1163L54.3882 43.6837ZM66.1 60.3H80.7V59.3H66.1V60.3ZM81.1099 59.5137L67.9099 40.6137L67.0901 41.1863L80.2901 60.0863L81.1099 59.5137ZM67.6991 41.3586C75.479 37.9805 80.1 31.3021 80.1 22.3H79.1C79.1 30.8979 74.7209 37.2195 67.3008 40.4414L67.6991 41.3586ZM80.1 22.3C80.1 15.5662 77.5948 10.0948 73.0575 6.3158C68.5309 2.54577 62.0309 0.5 54.1 0.5V1.5C61.8691 1.5 68.1191 3.50423 72.4175 7.0842C76.7052 10.6552 79.1 15.8338 79.1 22.3H80.1ZM42.7 32.6V12.1H41.7V32.6H42.7ZM42.2 12.6H53.3V11.6H42.2V12.6ZM53.3 12.6C57.3824 12.6 60.3749 13.5354 62.3399 15.1945C64.2914 16.8422 65.3 19.2634 65.3 22.4H66.3C66.3 19.0366 65.2086 16.3078 62.985 14.4305C60.7751 12.5646 57.5176 11.6 53.3 11.6V12.6ZM65.3 22.4C65.3 25.4847 64.2925 27.9077 62.3386 29.5691C60.3724 31.2409 57.3794 32.2 53.3 32.2V33.2C57.5206 33.2 60.7776 32.2091 62.9864 30.3309C65.2075 28.4423 66.3 25.7153 66.3 22.4H65.3ZM53.3 32.2H42.2V33.2H53.3V32.2ZM42.7 32.7V32.6H41.7V32.7H42.7Z" fill="#010101" mask="url(#path-2-outside-1_501_24)"/>
<mask id="path-4-outside-2_501_24" maskUnits="userSpaceOnUse" x="153.894" y="0" width="56" height="61" fill="black">
<rect fill="white" x="153.894" width="56" height="61"/>
<path d="M208.294 1.7V59H198.194L169.094 23.5L167.794 21.9V24V59H155.894V1.7H165.994L194.994 37.1L196.294 38.7V36.6V1.6H208.294M208.994 1H195.494V36.7L166.194 1H154.894V59.8H168.394V24.1L197.694 59.8H208.894V1H208.994Z"/>
</mask>
<path d="M208.294 1.7V59H198.194L169.094 23.5L167.794 21.9V24V59H155.894V1.7H165.994L194.994 37.1L196.294 38.7V36.6V1.6H208.294M208.994 1H195.494V36.7L166.194 1H154.894V59.8H168.394V24.1L197.694 59.8H208.894V1H208.994Z" fill="#010101"/>
<path d="M208.294 1.7V59H198.194L169.094 23.5L167.794 21.9V24V59H155.894V1.7H165.994L194.994 37.1L196.294 38.7V36.6V1.6H208.294M208.994 1H195.494V36.7L166.194 1H154.894V59.8H168.394V24.1L197.694 59.8H208.894V1H208.994Z" fill="#010101"/>
<path d="M208.294 59V59.5H208.794V59H208.294ZM198.194 59L197.807 59.317L197.957 59.5H198.194V59ZM169.094 23.5L168.706 23.8153L168.707 23.817L169.094 23.5ZM167.794 21.9L168.182 21.5847L167.294 20.4917V21.9H167.794ZM167.794 59V59.5H168.294V59H167.794ZM155.894 59H155.394V59.5H155.894V59ZM155.894 1.7V1.2H155.394V1.7H155.894ZM165.994 1.7L166.381 1.38314L166.231 1.2H165.994V1.7ZM194.994 37.1L195.382 36.7847L195.381 36.7831L194.994 37.1ZM196.294 38.7L195.906 39.0153L196.794 40.1083V38.7H196.294ZM196.294 1.6V1.1H195.794V1.6H196.294ZM195.494 1V0.5H194.994V1H195.494ZM195.494 36.7L195.107 37.0172L195.994 38.0973V36.7H195.494ZM166.194 1L166.58 0.682792L166.43 0.5H166.194V1ZM154.894 1V0.5H154.394V1H154.894ZM154.894 59.8H154.394V60.3H154.894V59.8ZM168.394 59.8V60.3H168.894V59.8H168.394ZM168.394 24.1L168.78 23.7828L167.894 22.7027V24.1H168.394ZM197.694 59.8L197.307 60.1172L197.457 60.3H197.694V59.8ZM208.894 59.8V60.3H209.394V59.8H208.894ZM208.894 1V0.5H208.394V1H208.894ZM207.794 1.7V59H208.794V1.7H207.794ZM208.294 58.5H198.194V59.5H208.294V58.5ZM198.581 58.683L169.481 23.183L168.707 23.817L197.807 59.317L198.581 58.683ZM169.482 23.1847L168.182 21.5847L167.406 22.2153L168.706 23.8153L169.482 23.1847ZM167.294 21.9V24H168.294V21.9H167.294ZM167.294 24V59H168.294V24H167.294ZM167.794 58.5H155.894V59.5H167.794V58.5ZM156.394 59V1.7H155.394V59H156.394ZM155.894 2.2H165.994V1.2H155.894V2.2ZM165.607 2.01686L194.607 37.4169L195.381 36.7831L166.381 1.38314L165.607 2.01686ZM194.606 37.4153L195.906 39.0153L196.682 38.3847L195.382 36.7847L194.606 37.4153ZM196.794 38.7V36.6H195.794V38.7H196.794ZM196.794 36.6V1.6H195.794V36.6H196.794ZM196.294 2.1H208.294V1.1H196.294V2.1ZM208.994 0.5H195.494V1.5H208.994V0.5ZM194.994 1V36.7H195.994V1H194.994ZM195.88 36.3828L166.58 0.682792L165.807 1.31721L195.107 37.0172L195.88 36.3828ZM166.194 0.5H154.894V1.5H166.194V0.5ZM154.394 1V59.8H155.394V1H154.394ZM154.894 60.3H168.394V59.3H154.894V60.3ZM168.894 59.8V24.1H167.894V59.8H168.894ZM168.007 24.4172L197.307 60.1172L198.08 59.4828L168.78 23.7828L168.007 24.4172ZM197.694 60.3H208.894V59.3H197.694V60.3ZM209.394 59.8V1H208.394V59.8H209.394ZM208.894 1.5H208.994V0.5H208.894V1.5Z" fill="#010101" mask="url(#path-4-outside-2_501_24)"/>
<path d="M118.797 43.1C118.797 43.4 118.797 43.8 118.797 44.4C118.897 52.6 118.997 59.8 118.997 59.8C125.697 56.1 131.397 51.2 136.497 45.5C137.697 44.1 139.097 42.4 139.997 40.8C140.697 39.5 141.397 38.5 141.897 37.1C143.497 32.8 144.397 28.3 143.597 23.5C136.997 32 128.897 30.4 119.097 40.8C118.997 40.9 118.897 41.1 118.897 41.3C117.897 41.7 117.697 41.7 116.697 41.3C116.597 41 116.597 40.9 116.497 40.7C106.697 30.3 98.5969 31.9 91.9969 23.4C91.1969 28.2 92.0969 32.7 93.6969 37C94.1969 38.4 94.8969 39.5 95.5969 40.7C96.4969 42.3 97.8969 44 99.0969 45.4C104.197 51.1 109.897 56 116.597 59.7C116.697 54.6 116.697 49.4 116.797 44.3C116.797 43.9 116.797 43.4 116.797 43C117.597 43.1 118.197 43.1 118.797 43.1Z" fill="#030303"/>
<path d="M93.0969 19.5C94.4969 20.6 96.1969 21.4 97.6969 22.2C100.797 23.9 103.997 25.4 107.397 26.5C111.197 27.7 112.897 28.2 116.897 28.6C117.897 28.6 117.897 28.6 118.797 28.6C122.797 28.2 124.497 27.7 128.297 26.5C131.697 25.4 134.897 23.9 137.997 22.2C139.497 21.4 141.197 20.5 142.597 19.5C143.497 18.8 142.997 18.5 142.397 17.7C141.997 17 141.497 16.4 140.997 15.8C137.097 10.9 131.797 7.1 125.897 5.1C123.597 4.3 119.897 1.9 119.197 1.1C119.197 2.7 118.997 18.6 118.997 19.6C118.997 19.7 118.597 20.1 118.297 20.1C117.897 20.2 117.697 20.2 117.297 20.1C116.997 20 116.697 19.8 116.497 19.5C116.397 18.5 116.397 2.6 116.297 1C115.597 1.8 111.897 4.3 109.597 5C103.697 7 98.2969 10.8 94.4969 15.7C93.9969 16.3 93.5969 17 93.0969 17.6C92.6969 18.5 92.2969 18.8 93.0969 19.5Z" fill="#030303"/>
</svg>
