<svg width="15" height="9" viewBox="0 0 15 9" fill="none" xmlns="http://www.w3.org/2000/svg">
<path d="M14.3479 7.01963C14.0213 6.61271 13.6501 6.248 13.2912 5.89529C13.1636 5.76985 13.0316 5.64016 12.9044 5.5112C12.5392 5.14058 12.5259 5.00134 12.8151 4.58036C13.0151 4.29017 13.2272 3.9996 13.4323 3.71859C13.6184 3.46364 13.8108 3.19998 13.9952 2.93547L14.033 2.88109C14.3855 2.37491 14.75 1.8515 14.9439 1.22009C14.9943 1.0535 15.0472 0.808363 14.9263 0.60338C14.8054 0.398567 14.571 0.336082 14.4051 0.306897C14.3231 0.292454 14.2416 0.290483 14.166 0.290483L11.858 0.288769L11.8389 0.288597C11.4899 0.288597 11.2548 0.459295 11.12 0.810506C10.9913 1.14607 10.85 1.50341 10.6887 1.84318C10.3678 2.51976 9.96022 3.29903 9.37042 3.94895L9.34548 3.97659C9.27583 4.05429 9.19693 4.14227 9.13925 4.14227C9.13041 4.14227 9.12079 4.14052 9.10989 4.13696C8.98772 4.08755 8.90572 3.78056 8.90944 3.63777C8.90948 3.63579 8.90952 3.63382 8.90952 3.63185L8.90791 0.862877C8.90791 0.853277 8.90725 0.843763 8.90605 0.834249C8.84734 0.384125 8.71728 0.103927 8.22587 0.00402828C8.21282 0.00132831 8.19949 0 8.18619 0H5.78628C5.39528 0 5.17984 0.164956 4.97732 0.411853C4.92266 0.477853 4.80887 0.615251 4.86527 0.781921C4.92249 0.951076 5.10825 0.987248 5.16874 0.99899C5.46898 1.0583 5.63822 1.24893 5.68616 1.58201C5.76985 2.16041 5.78013 2.77776 5.71853 3.52488C5.70135 3.73252 5.66737 3.89289 5.61138 4.0299C5.59838 4.06188 5.55226 4.16623 5.50523 4.16627C5.49029 4.16627 5.44706 4.16019 5.36832 4.10388C5.18215 3.97149 5.04594 3.78258 4.88715 3.54922C4.34694 2.75676 3.89355 1.88377 3.5009 0.879763C3.35528 0.510167 3.08331 0.303254 2.73476 0.297169C2.35177 0.291126 2.00454 0.288211 1.67337 0.288211C1.31152 0.288211 0.976052 0.291683 0.648472 0.298754C0.368044 0.303897 0.174072 0.391153 0.0720079 0.558295C-0.0302214 0.725565 -0.023574 0.945291 0.091785 1.21126C1.01523 3.34223 1.85252 4.89162 2.80668 6.23527C3.47526 7.17546 4.14586 7.82624 4.91688 8.28314C5.72918 8.76549 6.6395 9 7.69978 9C7.81997 9 7.94424 8.99696 8.06955 8.99087C8.68566 8.95971 8.91423 8.72825 8.94313 8.10558C8.95688 7.78737 8.9904 7.45364 9.1411 7.16903C9.23623 6.98972 9.32492 6.98972 9.35407 6.98972C9.41022 6.98972 9.47983 7.01655 9.5546 7.06682C9.68871 7.15767 9.8037 7.27939 9.89796 7.38572C9.98668 7.48673 10.0744 7.58877 10.1622 7.69086C10.3518 7.91118 10.5477 8.13897 10.7524 8.35501C11.2005 8.82819 11.6941 9.0363 12.261 8.99113H14.3771C14.3816 8.99113 14.3861 8.99096 14.3906 8.99066C14.6015 8.97622 14.7841 8.8548 14.8917 8.65757C15.0249 8.41325 15.0222 8.10155 14.8845 7.82358C14.7282 7.50927 14.5255 7.24073 14.3479 7.01963Z" fill="#A1A1A1"/>
</svg>
