<svg width="13" height="9" viewBox="0 0 13 9" fill="none" xmlns="http://www.w3.org/2000/svg">

<path fill-rule="evenodd" clip-rule="evenodd" d="M5.19248 5.75167V2.38458C6.48742 2.94704 7.49034 3.49038 8.6765 4.07618C7.69817 4.57701 6.48742 5.13895 5.19248 5.75167ZM12.4092 0.70997C12.1858 0.438314 11.8051 0.226853 11.3998 0.156845C10.2084 -0.0519847 2.77614 -0.0525787 1.58545 0.156845C1.26042 0.213089 0.970994 0.349039 0.722366 0.560263C-0.325236 1.4578 0.00303302 6.27102 0.255546 7.05069C0.36173 7.38817 0.498998 7.63156 0.671872 7.79132C0.894601 8.00254 1.19955 8.14797 1.54983 8.21319C2.53075 8.40048 7.58422 8.5052 11.379 8.24132C11.7287 8.18507 12.0381 8.03496 12.2822 7.81475C13.2509 6.9208 13.1848 1.83728 12.4092 0.70997Z" fill="#A1A1A1"/>

</svg>
